<svg xmlns="http://www.w3.org/2000/svg" version="1.0" width="512.000000pt" height="512.000000pt" viewBox="0 0 512.000000 512.000000" preserveAspectRatio="xMidYMid meet">

<g transform="translate(0.000000,512.000000) scale(0.100000,-0.100000)" fill="#2584ff" stroke="none">
<path d="M3357 4676 c-21 -8 -48 -22 -59 -33 -23 -20 -58 -85 -58 -106 0 -10 -31 -24 -86 -41 -47 -15 -123 -47 -170 -71 l-85 -44 -35 21 c-42 25 -118 27 -160 5 -16 -8 -70 -57 -121 -109 -71 -73 -93 -102 -98 -131 -8 -44 -2 -101 15 -142 12 -28 9 -38 -38 -140 -28 -61 -58 -135 -67 -166 -14 -51 -19 -57 -47 -63 -41 -8 -94 -49 -114 -88 -19 -36 -30 -189 -20 -271 4 -31 17 -71 29 -89 27 -40 82 -78 113 -78 19 0 25 -9 39 -57 9 -32 39 -109 67 -171 l51 -113 -16 -35 c-21 -42 -22 -125 -3 -162 25 -48 198 -208 239 -222 43 -14 98 -7 139 18 26 15 30 14 135 -35 59 -28 136 -59 170 -68 57 -16 62 -19 67 -51 9 -44 51 -93 101 -115 62 -28 272 -27 332 2 48 23 77 58 90 109 9 33 14 37 111 71 57 20 133 50 171 68 l68 31 44 -20 c88 -39 136 -23 250 87 105 101 134 153 125 220 -3 24 -13 57 -22 71 -15 26 -14 31 27 117 23 50 54 126 69 170 26 73 30 80 61 88 50 13 85 42 108 90 18 37 21 62 21 172 0 177 -23 223 -128 259 -32 11 -38 19 -53 68 -9 30 -40 105 -68 167 l-52 112 20 43 c45 91 26 139 -105 267 -74 73 -109 100 -139 108 -42 11 -92 4 -133 -18 -21 -11 -36 -7 -120 30 -53 23 -128 53 -167 65 -71 23 -75 25 -96 82 -15 41 -58 83 -101 99 -46 16 -254 15 -301 -1z m263 -186 c20 -73 60 -106 168 -140 54 -16 138 -51 187 -76 102 -53 170 -63 218 -31 15 9 32 17 39 17 8 0 44 -31 82 -69 l68 -68 -21 -34 c-35 -58 -29 -120 23 -220 24 -46 59 -129 76 -184 38 -114 80 -167 144 -179 l36 -7 0 -104 0 -104 -42 -12 c-66 -17 -101 -61 -132 -160 -14 -48 -48 -132 -76 -187 -58 -116 -65 -172 -29 -231 l21 -34 -74 -74 -75 -74 -38 22 c-61 36 -115 30 -215 -24 -47 -25 -130 -60 -185 -78 -109 -35 -159 -72 -170 -125 -4 -16 -8 -35 -11 -41 -2 -9 -33 -13 -108 -13 l-104 0 -6 36 c-4 19 -23 52 -42 74 -28 31 -52 43 -130 69 -52 17 -137 52 -187 77 -107 55 -162 61 -223 25 l-36 -21 -69 66 c-38 37 -69 72 -69 79 0 6 9 29 21 50 29 57 20 111 -34 215 -25 47 -58 125 -73 175 -32 104 -67 149 -135 174 l-44 17 -3 97 c-2 86 -1 98 15 103 53 18 106 49 119 70 9 13 31 69 51 126 19 56 54 140 79 187 50 97 54 133 23 199 l-22 44 71 71 70 70 53 -22 c68 -30 102 -24 210 33 46 24 122 56 169 71 130 40 159 66 193 168 6 15 20 17 106 17 l100 0 11 -40z" fill="#2584ff"/>
<path d="M3371 4140 c-159 -34 -281 -99 -397 -215 -77 -76 -98 -105 -137 -185 -67 -135 -82 -200 -82 -350 0 -145 19 -221 88 -355 31 -61 62 -101 131 -170 104 -103 169 -145 293 -188 115 -39 278 -49 399 -23 99 22 241 90 319 153 118 96 217 251 255 399 25 97 27 269 4 363 -22 92 -94 235 -154 308 -94 113 -243 209 -385 249 -70 19 -269 27 -334 14z m330 -182 c98 -36 156 -74 229 -147 114 -115 170 -251 170 -416 0 -169 -52 -296 -170 -416 -266 -270 -703 -231 -915 81 -233 344 -53 812 352 915 88 22 250 14 334 -17z" fill="#2584ff"/>
<path d="M490 4175 c-62 -20 -118 -69 -146 -129 l-24 -51 0 -1246 c0 -1383 -4 -1299 67 -1373 74 -76 4 -71 912 -74 l813 -2 -4 -193 c-3 -105 -10 -204 -16 -218 -10 -25 -16 -27 -99 -33 -258 -20 -546 -70 -748 -131 -130 -39 -310 -120 -344 -154 -28 -28 -28 -84 -1 -111 29 -29 68 -25 156 19 293 145 699 218 1276 228 680 12 1123 -54 1490 -223 123 -57 145 -59 178 -19 20 24 17 80 -4 104 -29 32 -171 97 -316 145 -204 67 -448 113 -740 139 l-135 12 -7 45 c-4 25 -11 123 -14 217 l-7 173 815 2 815 3 49 30 c30 19 60 49 79 79 l30 49 3 390 3 390 -22 23 c-28 30 -77 32 -110 5 l-24 -19 -5 -377 -5 -377 -24 -19 c-23 -19 -68 -19 -1938 -19 l-1914 0 -24 25 -25 24 0 1231 0 1232 29 29 29 29 864 0 865 0 21 23 c27 29 28 77 3 108 l-19 24 -869 2 c-722 1 -876 -1 -913 -12z m2133 -3047 c4 -95 10 -192 13 -215 l7 -43 -198 0 c-184 0 -197 1 -190 18 5 9 10 106 13 215 l4 197 173 0 172 0 6 -172z" fill="#2584ff"/>
<path d="M898 2352 c-142 -142 -158 -161 -158 -192 0 -30 16 -50 153 -187 83 -85 162 -156 175 -160 52 -13 110 44 97 94 -4 16 -54 76 -121 143 l-114 116 116 114 c63 63 117 125 120 137 11 43 -31 92 -81 93 -25 0 -53 -24 -187 -158z" fill="#2584ff"/>
<path d="M1576 2487 c-17 -18 -38 -85 -95 -312 -61 -247 -70 -293 -61 -316 22 -53 104 -63 134 -16 21 31 158 585 151 608 -9 26 -54 59 -82 59 -13 0 -34 -10 -47 -23z" fill="#2584ff"/>
<path d="M1989 2497 c-25 -19 -41 -57 -35 -80 3 -12 57 -74 120 -137 l116 -114 -114 -116 c-67 -67 -117 -127 -121 -143 -13 -50 45 -107 97 -94 13 4 92 75 176 160 136 137 152 157 152 187 0 31 -16 50 -158 192 -134 134 -162 158 -187 158 -17 0 -37 -6 -46 -13z" fill="#2584ff"/>
</g>
</svg>