<svg width="0" height="0" class="hidden">
  <symbol xmlns="http://www.w3.org/2000/svg" version="1.0" preserveAspectRatio="xMidYMid meet" viewBox="0 0 512.000000 512.000000" id="back-arrow">
    <g transform="translate(0.000000,512.000000) scale(0.100000,-0.100000)" fill="#2584ff" stroke="none">
      <path d="M2365 5019 c-464 -36 -916 -208 -1293 -491 -126 -95 -334 -297 -435 -423 -306 -380 -488 -826 -538 -1320 -14 -146 -7 -447 16 -590 59 -376 199 -731 407 -1031 388 -562 966 -930 1643 -1045 172 -30 485 -37 669 -15 844 98 1566 607 1941 1370 116 237 190 475 232 753 20 136 23 499 5 628 -69 482 -234 872 -530 1250 -83 106 -314 331 -427 416 -495 371 -1086 546 -1690 498z m-535 -1389 c19 -19 20 -33 20 -229 0 -196 1 -210 21 -235 l20 -26 667 0 c686 0 742 -3 862 -42 353 -114 581 -428 581 -798 0 -379 -235 -692 -606 -806 l-90 -28 -381 -1 -380 0 -41 27 c-61 40 -88 90 -88 164 0 75 34 132 98 166 41 22 52 23 402 28 346 5 362 6 418 28 102 41 195 129 242 229 117 245 -14 543 -273 623 -61 19 -95 20 -736 20 -369 0 -676 -4 -682 -8 -29 -19 -34 -56 -34 -255 l0 -204 -25 -23 c-20 -19 -30 -22 -49 -14 -31 12 -651 644 -661 673 -4 12 -4 34 0 48 3 15 140 163 327 354 338 346 345 352 388 309z" fill="#2584ff"></path>
    </g>
  </symbol>
  <symbol xmlns="http://www.w3.org/2000/svg" version="1.0" preserveAspectRatio="xMidYMid meet" viewBox="0 0 512.000000 512.000000" id="custom">
    <g transform="translate(0.000000,512.000000) scale(0.100000,-0.100000)" fill="#2584ff" stroke="none">
      <path d="M3357 4676 c-21 -8 -48 -22 -59 -33 -23 -20 -58 -85 -58 -106 0 -10 -31 -24 -86 -41 -47 -15 -123 -47 -170 -71 l-85 -44 -35 21 c-42 25 -118 27 -160 5 -16 -8 -70 -57 -121 -109 -71 -73 -93 -102 -98 -131 -8 -44 -2 -101 15 -142 12 -28 9 -38 -38 -140 -28 -61 -58 -135 -67 -166 -14 -51 -19 -57 -47 -63 -41 -8 -94 -49 -114 -88 -19 -36 -30 -189 -20 -271 4 -31 17 -71 29 -89 27 -40 82 -78 113 -78 19 0 25 -9 39 -57 9 -32 39 -109 67 -171 l51 -113 -16 -35 c-21 -42 -22 -125 -3 -162 25 -48 198 -208 239 -222 43 -14 98 -7 139 18 26 15 30 14 135 -35 59 -28 136 -59 170 -68 57 -16 62 -19 67 -51 9 -44 51 -93 101 -115 62 -28 272 -27 332 2 48 23 77 58 90 109 9 33 14 37 111 71 57 20 133 50 171 68 l68 31 44 -20 c88 -39 136 -23 250 87 105 101 134 153 125 220 -3 24 -13 57 -22 71 -15 26 -14 31 27 117 23 50 54 126 69 170 26 73 30 80 61 88 50 13 85 42 108 90 18 37 21 62 21 172 0 177 -23 223 -128 259 -32 11 -38 19 -53 68 -9 30 -40 105 -68 167 l-52 112 20 43 c45 91 26 139 -105 267 -74 73 -109 100 -139 108 -42 11 -92 4 -133 -18 -21 -11 -36 -7 -120 30 -53 23 -128 53 -167 65 -71 23 -75 25 -96 82 -15 41 -58 83 -101 99 -46 16 -254 15 -301 -1z m263 -186 c20 -73 60 -106 168 -140 54 -16 138 -51 187 -76 102 -53 170 -63 218 -31 15 9 32 17 39 17 8 0 44 -31 82 -69 l68 -68 -21 -34 c-35 -58 -29 -120 23 -220 24 -46 59 -129 76 -184 38 -114 80 -167 144 -179 l36 -7 0 -104 0 -104 -42 -12 c-66 -17 -101 -61 -132 -160 -14 -48 -48 -132 -76 -187 -58 -116 -65 -172 -29 -231 l21 -34 -74 -74 -75 -74 -38 22 c-61 36 -115 30 -215 -24 -47 -25 -130 -60 -185 -78 -109 -35 -159 -72 -170 -125 -4 -16 -8 -35 -11 -41 -2 -9 -33 -13 -108 -13 l-104 0 -6 36 c-4 19 -23 52 -42 74 -28 31 -52 43 -130 69 -52 17 -137 52 -187 77 -107 55 -162 61 -223 25 l-36 -21 -69 66 c-38 37 -69 72 -69 79 0 6 9 29 21 50 29 57 20 111 -34 215 -25 47 -58 125 -73 175 -32 104 -67 149 -135 174 l-44 17 -3 97 c-2 86 -1 98 15 103 53 18 106 49 119 70 9 13 31 69 51 126 19 56 54 140 79 187 50 97 54 133 23 199 l-22 44 71 71 70 70 53 -22 c68 -30 102 -24 210 33 46 24 122 56 169 71 130 40 159 66 193 168 6 15 20 17 106 17 l100 0 11 -40z" fill="#2584ff"></path>
      <path d="M3371 4140 c-159 -34 -281 -99 -397 -215 -77 -76 -98 -105 -137 -185 -67 -135 -82 -200 -82 -350 0 -145 19 -221 88 -355 31 -61 62 -101 131 -170 104 -103 169 -145 293 -188 115 -39 278 -49 399 -23 99 22 241 90 319 153 118 96 217 251 255 399 25 97 27 269 4 363 -22 92 -94 235 -154 308 -94 113 -243 209 -385 249 -70 19 -269 27 -334 14z m330 -182 c98 -36 156 -74 229 -147 114 -115 170 -251 170 -416 0 -169 -52 -296 -170 -416 -266 -270 -703 -231 -915 81 -233 344 -53 812 352 915 88 22 250 14 334 -17z" fill="#2584ff"></path>
      <path d="M490 4175 c-62 -20 -118 -69 -146 -129 l-24 -51 0 -1246 c0 -1383 -4 -1299 67 -1373 74 -76 4 -71 912 -74 l813 -2 -4 -193 c-3 -105 -10 -204 -16 -218 -10 -25 -16 -27 -99 -33 -258 -20 -546 -70 -748 -131 -130 -39 -310 -120 -344 -154 -28 -28 -28 -84 -1 -111 29 -29 68 -25 156 19 293 145 699 218 1276 228 680 12 1123 -54 1490 -223 123 -57 145 -59 178 -19 20 24 17 80 -4 104 -29 32 -171 97 -316 145 -204 67 -448 113 -740 139 l-135 12 -7 45 c-4 25 -11 123 -14 217 l-7 173 815 2 815 3 49 30 c30 19 60 49 79 79 l30 49 3 390 3 390 -22 23 c-28 30 -77 32 -110 5 l-24 -19 -5 -377 -5 -377 -24 -19 c-23 -19 -68 -19 -1938 -19 l-1914 0 -24 25 -25 24 0 1231 0 1232 29 29 29 29 864 0 865 0 21 23 c27 29 28 77 3 108 l-19 24 -869 2 c-722 1 -876 -1 -913 -12z m2133 -3047 c4 -95 10 -192 13 -215 l7 -43 -198 0 c-184 0 -197 1 -190 18 5 9 10 106 13 215 l4 197 173 0 172 0 6 -172z" fill="#2584ff"></path>
      <path d="M898 2352 c-142 -142 -158 -161 -158 -192 0 -30 16 -50 153 -187 83 -85 162 -156 175 -160 52 -13 110 44 97 94 -4 16 -54 76 -121 143 l-114 116 116 114 c63 63 117 125 120 137 11 43 -31 92 -81 93 -25 0 -53 -24 -187 -158z" fill="#2584ff"></path>
      <path d="M1576 2487 c-17 -18 -38 -85 -95 -312 -61 -247 -70 -293 -61 -316 22 -53 104 -63 134 -16 21 31 158 585 151 608 -9 26 -54 59 -82 59 -13 0 -34 -10 -47 -23z" fill="#2584ff"></path>
      <path d="M1989 2497 c-25 -19 -41 -57 -35 -80 3 -12 57 -74 120 -137 l116 -114 -114 -116 c-67 -67 -117 -127 -121 -143 -13 -50 45 -107 97 -94 13 4 92 75 176 160 136 137 152 157 152 187 0 31 -16 50 -158 192 -134 134 -162 158 -187 158 -17 0 -37 -6 -46 -13z" fill="#2584ff"></path>
    </g>
  </symbol>
  <symbol xmlns="http://www.w3.org/2000/svg" version="1.0" preserveAspectRatio="xMidYMid meet" viewBox="0 0 512.000000 512.000000" id="diagram">
    <g transform="translate(0.000000,512.000000) scale(0.100000,-0.100000)" fill="#2584ff" stroke="none">
      <path d="M4216 4989 c-365 -98 -486 -135 -504 -152 -40 -37 -55 -75 -49 -131 4 -42 10 -55 45 -88 40 -37 66 -45 127 -38 11 1 145 35 297 76 152 41 282 74 288 74 14 0 -19 -59 -113 -200 -487 -729 -1260 -1391 -2127 -1819 -647 -320 -1257 -484 -1903 -510 -155 -6 -180 -10 -204 -27 -94 -70 -95 -190 -3 -252 35 -24 37 -24 230 -19 906 26 1914 387 2795 1000 297 207 551 421 825 696 286 287 464 504 660 803 58 89 101 145 104 137 3 -8 35 -126 71 -264 36 -137 72 -264 80 -282 16 -36 77 -81 115 -83 65 -5 83 1 120 38 67 67 68 56 -76 595 -75 282 -137 493 -149 511 -24 37 -78 66 -120 65 -16 0 -246 -59 -509 -130z" fill="#2584ff"></path>
      <path d="M3988 3389 c-23 -12 -46 -35 -58 -59 -20 -39 -20 -56 -20 -1535 l0 -1495 -150 0 -150 0 0 995 c0 978 0 996 -20 1035 -13 26 -34 47 -60 60 -37 19 -58 20 -370 20 -312 0 -333 -1 -370 -20 -26 -13 -47 -34 -60 -60 -20 -39 -20 -57 -20 -1035 l0 -995 -150 0 -150 0 0 720 c0 703 -1 722 -20 760 -13 26 -34 47 -60 60 -37 19 -58 20 -370 20 -312 0 -333 -1 -370 -20 -26 -13 -47 -34 -60 -60 -19 -38 -20 -57 -20 -760 l0 -720 -150 0 -150 0 0 540 c0 522 -1 542 -20 580 -13 26 -34 47 -60 60 -37 19 -58 20 -370 20 -312 0 -333 -1 -370 -20 -26 -13 -47 -34 -60 -60 -19 -38 -20 -58 -20 -580 l0 -540 -95 0 c-76 0 -104 -4 -135 -20 -45 -23 -80 -80 -80 -130 0 -50 35 -107 80 -130 39 -20 53 -20 2480 -20 2427 0 2441 0 2480 20 45 23 80 80 80 130 0 50 -35 107 -80 130 -31 16 -59 20 -135 20 l-95 0 0 1495 c0 1479 0 1496 -20 1535 -13 26 -34 47 -60 60 -37 19 -58 20 -372 20 -312 -1 -335 -2 -370 -21z" fill="#2584ff"></path>
    </g>
  </symbol>
  <symbol xmlns="http://www.w3.org/2000/svg" viewBox="0 0 512 512" id="image-regular">
    <path d="M448 80c8.8 0 16 7.2 16 16V415.8l-5-6.5-136-176c-4.5-5.9-11.6-9.3-19-9.3s-14.4 3.4-19 9.3L202 340.7l-30.5-42.7C167 291.7 159.8 288 152 288s-15 3.7-19.5 10.1l-80 112L48 416.3l0-.3V96c0-8.8 7.2-16 16-16H448zM64 32C28.7 32 0 60.7 0 96V416c0 35.3 28.7 64 64 64H448c35.3 0 64-28.7 64-64V96c0-35.3-28.7-64-64-64H64zm80 192a48 48 0 1 0 0-96 48 48 0 1 0 0 96z"></path>
  </symbol>
  <symbol xmlns="http://www.w3.org/2000/svg" xmlns:xlink="http://www.w3.org/1999/xlink" fill="#2584ff" version="1.1" id="menu" xml:space="preserve" viewBox="0 0 150 150">
    <g id="XMLID_240_">
      <path id="XMLID_241_" d="M15,30h120c8.284,0,15-6.716,15-15s-6.716-15-15-15H15C6.716,0,0,6.716,0,15S6.716,30,15,30z" fill="#2584ff"></path>
      <path id="XMLID_242_" d="M135,60H15C6.716,60,0,66.716,0,75s6.716,15,15,15h120c8.284,0,15-6.716,15-15S143.284,60,135,60z" fill="#2584ff"></path>
      <path id="XMLID_243_" d="M135,120H15c-8.284,0-15,6.716-15,15s6.716,15,15,15h120c8.284,0,15-6.716,15-15S143.284,120,135,120z" fill="#2584ff"></path>
    </g>
  </symbol>
  <symbol xmlns="http://www.w3.org/2000/svg" version="1.0" preserveAspectRatio="xMidYMid meet" viewBox="0 0 512.000000 512.000000" id="save-time">
    <g transform="translate(0.000000,512.000000) scale(0.100000,-0.100000)" fill="#2584ff" stroke="none">
      <path d="M2930 5109 c-542 -67 -1003 -373 -1273 -844 -91 -159 -158 -346 -193 -540 -25 -140 -25 -432 0 -570 34 -187 121 -432 175 -492 27 -32 75 -30 107 3 33 33 30 55 -31 202 -86 207 -123 421 -111 642 14 287 99 542 257 781 84 126 282 324 408 408 174 115 380 199 586 237 138 26 392 26 530 0 319 -59 574 -194 806 -425 182 -182 293 -359 369 -590 57 -169 73 -275 75 -485 l2 -190 27 -23 c15 -13 34 -23 42 -23 30 0 74 31 81 58 15 53 7 362 -11 467 -63 350 -218 647 -471 901 -248 250 -551 408 -900 469 -109 20 -372 27 -475 14z" fill="#2584ff"></path>
      <path d="M2951 4790 c-306 -43 -578 -177 -791 -390 -149 -149 -254 -317 -324 -518 -55 -159 -70 -253 -70 -442 -1 -184 14 -278 66 -433 48 -145 156 -347 193 -361 52 -20 115 18 115 70 0 14 -15 52 -34 83 -230 382 -247 810 -48 1195 163 317 456 538 824 623 101 23 373 23 476 0 483 -110 829 -455 939 -939 23 -102 23 -374 0 -476 -20 -86 -11 -117 36 -140 23 -11 34 -11 59 -1 40 16 53 50 74 190 19 131 15 323 -11 448 -109 543 -534 967 -1076 1076 -91 19 -341 27 -428 15z" fill="#2584ff"></path>
      <path d="M3065 4455 c-22 -21 -25 -33 -25 -95 0 -62 3 -74 25 -95 15 -16 36 -25 55 -25 19 0 40 9 55 25 22 21 25 33 25 95 0 62 -3 74 -25 95 -15 16 -36 25 -55 25 -19 0 -40 -9 -55 -25z" fill="#2584ff"></path>
      <path d="M2585 4325 c-14 -13 -25 -36 -25 -50 0 -39 59 -132 92 -146 50 -21 108 21 108 78 0 24 -59 122 -80 133 -32 17 -70 11 -95 -15z" fill="#2584ff"></path>
      <path d="M3558 4340 c-20 -12 -78 -111 -78 -133 0 -57 58 -99 108 -78 33 14 92 107 92 146 0 54 -73 93 -122 65z" fill="#2584ff"></path>
      <path d="M3065 4055 l-25 -24 0 -311 0 -311 25 -24 24 -25 231 0 231 0 24 25 c16 15 25 36 25 55 0 19 -9 40 -25 55 -24 25 -27 25 -200 25 l-175 0 0 255 0 256 -25 24 c-15 16 -36 25 -55 25 -19 0 -40 -9 -55 -25z" fill="#2584ff"></path>
      <path d="M2235 3975 c-26 -25 -32 -63 -15 -95 11 -21 109 -80 133 -80 57 0 99 58 78 108 -14 33 -107 92 -146 92 -14 0 -37 -11 -50 -25z" fill="#2584ff"></path>
      <path d="M3873 3967 c-55 -33 -79 -71 -68 -107 10 -31 45 -60 73 -60 31 0 129 55 142 80 17 32 11 70 -15 95 -33 33 -69 31 -132 -8z" fill="#2584ff"></path>
      <path d="M2105 3495 c-16 -15 -25 -36 -25 -55 0 -19 9 -40 25 -55 21 -22 33 -25 95 -25 62 0 74 3 95 25 16 15 25 36 25 55 0 19 -9 40 -25 55 -21 22 -33 25 -95 25 -62 0 -74 -3 -95 -25z" fill="#2584ff"></path>
      <path d="M3945 3495 c-16 -15 -25 -36 -25 -55 0 -19 9 -40 25 -55 21 -22 33 -25 95 -25 62 0 74 3 95 25 16 15 25 36 25 55 0 19 -9 40 -25 55 -21 22 -33 25 -95 25 -62 0 -74 -3 -95 -25z" fill="#2584ff"></path>
      <path d="M2285 3050 c-27 -16 -55 -37 -62 -46 -37 -51 10 -131 71 -121 47 8 124 57 137 89 21 51 -22 108 -79 108 -9 0 -39 -14 -67 -30z" fill="#2584ff"></path>
      <path d="M3843 3068 c-32 -15 -48 -61 -34 -96 14 -33 107 -92 146 -92 33 0 75 41 75 75 0 41 -17 63 -73 95 -55 32 -78 35 -114 18z" fill="#2584ff"></path>
      <path d="M4703 3040 c-22 -5 -60 -18 -84 -30 -23 -12 -298 -193 -612 -402 -313 -209 -574 -381 -581 -384 -6 -2 -21 15 -33 38 -36 75 -98 134 -181 175 l-76 38 -905 3 -905 3 -262 -263 -263 -262 -65 62 c-102 98 -88 104 -353 -161 -265 -265 -259 -251 -161 -353 l62 -64 -142 -144 c-124 -124 -142 -147 -142 -175 0 -43 38 -81 81 -81 28 0 51 18 176 142 l143 143 462 -463 463 -462 -143 -143 c-124 -125 -142 -148 -142 -176 0 -21 9 -41 25 -56 15 -16 35 -25 56 -25 28 0 51 18 175 142 l144 142 64 -62 c102 -98 88 -104 353 161 265 265 259 251 161 353 l-62 65 119 119 120 120 476 0 476 0 909 681 c500 375 926 698 948 718 184 173 140 467 -87 571 -69 32 -150 43 -214 30z m165 -184 c79 -41 113 -156 72 -241 -21 -43 -92 -99 -935 -731 l-912 -684 -483 0 -483 0 -144 -142 -143 -143 -463 463 -462 462 240 240 240 240 839 0 c629 0 849 -3 880 -12 86 -26 166 -136 166 -228 0 -92 -80 -202 -166 -228 -30 -9 -189 -12 -593 -12 l-552 0 -24 -25 c-33 -32 -33 -78 0 -111 l25 -25 582 3 583 3 67 32 c115 54 206 167 224 276 7 39 11 41 636 458 409 273 642 422 666 427 44 10 95 2 140 -22z m-3603 -1596 l620 -620 -143 -142 -142 -143 -622 622 -623 623 140 140 c77 77 142 140 145 140 3 0 284 -279 625 -620z" fill="#2584ff"></path>
      <path d="M3524 2748 c-23 -10 -44 -47 -44 -75 0 -24 59 -122 80 -133 32 -17 70 -11 97 16 31 31 28 68 -13 136 -37 62 -74 79 -120 56z" fill="#2584ff"></path>
    </g>
  </symbol>
  <symbol xmlns="http://www.w3.org/2000/svg" viewBox="0 0 460 512" id="searchengin">
    <path d="M220.6 130.3l-67.2 28.2V43.2L98.7 233.5l54.7-24.2v130.3l67.2-209.3zm-83.2-96.7l-1.3 4.7-15.2 52.9C80.6 106.7 52 145.8 52 191.5c0 52.3 34.3 95.9 83.4 105.5v53.6C57.5 340.1 0 272.4 0 191.6c0-80.5 59.8-147.2 137.4-158zm311.4 447.2c-11.2 11.2-23.1 12.3-28.6 10.5-5.4-1.8-27.1-19.9-60.4-44.4-33.3-24.6-33.6-35.7-43-56.7-9.4-20.9-30.4-42.6-57.5-52.4l-9.7-14.7c-24.7 16.9-53 26.9-81.3 28.7l2.1-6.6 15.9-49.5c46.5-11.9 80.9-54 80.9-104.2 0-54.5-38.4-102.1-96-107.1V32.3C254.4 37.4 320 106.8 320 191.6c0 33.6-11.2 64.7-29 90.4l14.6 9.6c9.8 27.1 31.5 48 52.4 57.4s32.2 9.7 56.8 43c24.6 33.2 42.7 54.9 44.5 60.3s.7 17.3-10.5 28.5zm-9.9-17.9c0-4.4-3.6-8-8-8s-8 3.6-8 8 3.6 8 8 8 8-3.6 8-8z"></path>
  </symbol>
  <symbol xmlns="http://www.w3.org/2000/svg" viewBox="0 0 440 512" id="staylinked">
    <path d="M382.7 292.5l2.7 2.7-170-167.3c-3.5-3.5-9.7-3.7-13.8-.5L144.3 171c-4.2 3.2-4.6 8.7-1.1 12.2l68.1 64.3c3.6 3.5 9.9 3.7 14 .5l.1-.1c4.1-3.2 10.4-3 14 .5l84 81.3c3.6 3.5 3.2 9-.9 12.2l-93.2 74c-4.2 3.3-10.5 3.1-14.2-.4L63.2 268c-3.5-3.5-9.7-3.7-13.9-.5L3.5 302.4c-4.2 3.2-4.7 8.7-1.2 12.2L211 510.7s7.4 6.8 17.3-.8l198-163.9c4-3.2 4.4-8.7 .7-12.2zm54.5-83.4L226.7 2.5c-1.5-1.2-8-5.5-16.3 1.1L3.6 165.7c-4.2 3.2-4.8 8.7-1.2 12.2l42.3 41.7 171.7 165.1c3.7 3.5 10.1 3.7 14.3 .4l50.2-38.8-.3-.3 7.7-6c4.2-3.2 4.6-8.7 .9-12.2l-57.1-54.4c-3.6-3.5-10-3.7-14.2-.5l-.1 .1c-4.2 3.2-10.5 3.1-14.2-.4L109 180.8c-3.6-3.5-3.1-8.9 1.1-12.2l92.2-71.5c4.1-3.2 10.3-3 13.9 .5l160.4 159c3.7 3.5 10 3.7 14.1 .5l45.8-35.8c4.1-3.2 4.4-8.7 .7-12.2z"></path>
  </symbol>
  <symbol xmlns="http://www.w3.org/2000/svg" viewBox="0 0 512 512" id="wordpress">
    <path d="M61.7 169.4l101.5 278C92.2 413 43.3 340.2 43.3 256c0-30.9 6.6-60.1 18.4-86.6zm337.9 75.9c0-26.3-9.4-44.5-17.5-58.7-10.8-17.5-20.9-32.4-20.9-49.9 0-19.6 14.8-37.8 35.7-37.8 .9 0 1.8 .1 2.8 .2-37.9-34.7-88.3-55.9-143.7-55.9-74.3 0-139.7 38.1-177.8 95.9 5 .2 9.7 .3 13.7 .3 22.2 0 56.7-2.7 56.7-2.7 11.5-.7 12.8 16.2 1.4 17.5 0 0-11.5 1.3-24.3 2l77.5 230.4L249.8 247l-33.1-90.8c-11.5-.7-22.3-2-22.3-2-11.5-.7-10.1-18.2 1.3-17.5 0 0 35.1 2.7 56 2.7 22.2 0 56.7-2.7 56.7-2.7 11.5-.7 12.8 16.2 1.4 17.5 0 0-11.5 1.3-24.3 2l76.9 228.7 21.2-70.9c9-29.4 16-50.5 16-68.7zm-139.9 29.3l-63.8 185.5c19.1 5.6 39.2 8.7 60.1 8.7 24.8 0 48.5-4.3 70.6-12.1-.6-.9-1.1-1.9-1.5-2.9l-65.4-179.2zm183-120.7c.9 6.8 1.4 14 1.4 21.9 0 21.6-4 45.8-16.2 76.2l-65 187.9C426.2 403 468.7 334.5 468.7 256c0-37-9.4-71.8-26-102.1zM504 256c0 136.8-111.3 248-248 248C119.2 504 8 392.7 8 256 8 119.2 119.2 8 256 8c136.7 0 248 111.2 248 248zm-11.4 0c0-130.5-106.2-236.6-236.6-236.6C125.5 19.4 19.4 125.5 19.4 256S125.6 492.6 256 492.6c130.5 0 236.6-106.1 236.6-236.6z"></path>
  </symbol>
</svg>